<svg xmlns="http://www.w3.org/2000/svg" viewBox="0 0 400 300" fill="none">
  <rect width="400" height="300" rx="12" fill="#0f172a"/>
  <rect x="20" y="20" width="170" height="80" rx="8" fill="#1e293b" stroke="#334155" stroke-width="1"/>
  <rect x="30" y="30" width="80" height="8" rx="2" fill="#60a5fa"/>
  <rect x="30" y="44" width="150" height="6" rx="2" fill="#475569"/>
  <rect x="30" y="56" width="120" height="6" rx="2" fill="#475569"/>
  <rect x="30" y="74" width="60" height="16" rx="4" fill="#3b82f6"/>
  <rect x="210" y="20" width="170" height="80" rx="8" fill="#1e293b" stroke="#334155" stroke-width="1"/>
  <rect x="220" y="30" width="150" height="40" rx="4" fill="#334155"/>
  <rect x="220" y="76" width="100" height="6" rx="2" fill="#475569"/>
  <rect x="220" y="88" width="60" height="6" rx="2" fill="#475569"/>
  <rect x="20" y="110" width="110" height="80" rx="8" fill="#1e293b" stroke="#334155" stroke-width="1"/>
  <circle cx="75" cy="140" r="16" fill="#334155"/>
  <rect x="40" y="162" width="60" height="6" rx="2" fill="#60a5fa"/>
  <rect x="35" y="174" width="70" height="4" rx="2" fill="#475569"/>
  <rect x="140" y="110" width="110" height="80" rx="8" fill="#1e293b" stroke="#334155" stroke-width="1"/>
  <circle cx="195" cy="140" r="16" fill="#334155"/>
  <rect x="160" y="162" width="60" height="6" rx="2" fill="#60a5fa"/>
  <rect x="155" y="174" width="70" height="4" rx="2" fill="#475569"/>
  <rect x="260" y="110" width="120" height="80" rx="8" fill="#1e293b" stroke="#3b82f6" stroke-width="2"/>
  <rect x="290" y="118" width="60" height="14" rx="3" fill="#3b82f6"/>
  <circle cx="320" cy="148" r="16" fill="#334155"/>
  <rect x="280" y="170" width="60" height="6" rx="2" fill="#60a5fa"/>
  <rect x="275" y="182" width="70" height="4" rx="2" fill="#475569"/>
  <rect x="20" y="200" width="360" height="40" rx="8" fill="#1e293b" stroke="#334155" stroke-width="1"/>
  <rect x="30" y="210" width="100" height="8" rx="2" fill="#60a5fa"/>
  <rect x="30" y="224" width="200" height="6" rx="2" fill="#475569"/>
  <rect x="290" y="212" width="80" height="20" rx="4" fill="#3b82f6"/>
  <rect x="20" y="250" width="85" height="30" rx="6" fill="#1e293b" stroke="#334155" stroke-width="1"/>
  <rect x="30" y="258" width="40" height="14" rx="2" fill="#10b981"/>
  <rect x="115" y="250" width="85" height="30" rx="6" fill="#1e293b" stroke="#334155" stroke-width="1"/>
  <rect x="125" y="258" width="40" height="14" rx="2" fill="#f59e0b"/>
  <rect x="210" y="250" width="85" height="30" rx="6" fill="#1e293b" stroke="#334155" stroke-width="1"/>
  <rect x="220" y="258" width="40" height="14" rx="2" fill="#ef4444"/>
  <rect x="305" y="250" width="75" height="30" rx="6" fill="#1e293b" stroke="#334155" stroke-width="1"/>
  <rect x="315" y="258" width="40" height="14" rx="2" fill="#8b5cf6"/>
</svg>
